<svg id="Contacts" xmlns="http://www.w3.org/2000/svg" width="163" height="32" viewBox="0 0 163 32">
  <metadata><?xpacket begin="﻿" id="W5M0MpCehiHzreSzNTczkc9d"?>
<x:xmpmeta xmlns:x="adobe:ns:meta/" x:xmptk="Adobe XMP Core 5.6-c138 79.159824, 2016/09/14-01:09:01        ">
   <rdf:RDF xmlns:rdf="http://www.w3.org/1999/02/22-rdf-syntax-ns#">
      <rdf:Description rdf:about=""/>
   </rdf:RDF>
</x:xmpmeta>
                                                                                                    
                                                                                                    
                                                                                                    
                                                                                                    
                                                                                                    
                                                                                                    
                                                                                                    
                                                                                                    
                                                                                                    
                                                                                                    
                                                                                                    
                                                                                                    
                                                                                                    
                                                                                                    
                                                                                                    
                                                                                                    
                                                                                                    
                                                                                                    
                                                                                                    
                                                                                                    
                           
<?xpacket end="w"?></metadata>
<defs>
    <style>
      .cls-1 {
        fill: #bdd1df;
      }

      .cls-2 {
        fill: #fff;
        fill-rule: evenodd;
      }
    </style>
  </defs>
  <g id="Fb_icon" data-name="Fb icon">
    <circle id="base" class="cls-1" cx="16" cy="16" r="16"/>
    <path id="Facebook_Icon" data-name="Facebook Icon" class="cls-2" d="M237.979,2106.94h-1.651a3.031,3.031,0,0,0-3.313,3.24v1.81h-2l0.006,2.01h1.993l-0.03,8.01h3.03v-7.98l1.738-.03,0.624-2.01h-2.394v-2.06a0.927,0.927,0,0,1,1.049-.92h0.938Z" transform="translate(-219 -2098)"/>
  </g>
  <g id="LinkedIn_icon" data-name="LinkedIn icon">
    <circle id="Base-2" data-name="Base" class="cls-1" cx="103" cy="16" r="16"/>
    <path id="LinkedIn_icon-2" data-name="LinkedIn icon" class="cls-2" d="M318.464,2106.92a1.7,1.7,0,0,1-1.9,1.69A1.709,1.709,0,1,1,318.464,2106.92ZM315,2121.01v-11.02h3.011v11.02H315Zm5.019-11.02H322.7l0.321,1.12a3.557,3.557,0,0,1,3.227-1.5c2.221,0,3.756,1.29,3.756,4.49v6.88h-3v-6.4a2.2,2.2,0,0,0-2.188-2.35,1.83,1.83,0,0,0-1.716,1.26,2.4,2.4,0,0,0-.111.84v6.65h-2.977v-10.99Z" transform="translate(-219 -2098)"/>
  </g>
  <g id="Twitter_icon" data-name="Twitter icon">
    <circle id="Base-3" data-name="Base" class="cls-1" cx="60" cy="16" r="16"/>
    <path id="Twitter" class="cls-2" d="M287.984,2109.66a6.733,6.733,0,0,1-2,.55,3.551,3.551,0,0,0,1.531-1.95,6.818,6.818,0,0,1-2.211.85,3.477,3.477,0,0,0-6.023,2.42,3.649,3.649,0,0,0,.09.81,9.843,9.843,0,0,1-7.175-3.7,3.584,3.584,0,0,0-.472,1.78,3.534,3.534,0,0,0,1.549,2.94,3.271,3.271,0,0,1-1.577-.44v0.05a3.516,3.516,0,0,0,2.792,3.46,3.46,3.46,0,0,1-.917.13,2.852,2.852,0,0,1-.655-0.07,3.492,3.492,0,0,0,3.253,2.46,6.907,6.907,0,0,1-4.324,1.51,5.7,5.7,0,0,1-.83-0.05,9.686,9.686,0,0,0,5.336,1.59,9.922,9.922,0,0,0,9.905-10.06c0-.15,0-0.3-0.01-0.45A7.318,7.318,0,0,0,287.984,2109.66Z" transform="translate(-219 -2098)"/>
  </g>
  <g id="Mail_icon" data-name="Mail icon">
    <circle id="Base-4" data-name="Base" class="cls-1" cx="147" cy="16" r="16"/>
    <path id="Mail" class="cls-2" d="M358.609,2110.18c0.487,0.27,6.238,4.01,6.489,4.15a2.148,2.148,0,0,0,1.81,0c0.251-.14,6-3.88,6.489-4.15s0.95-1.12.054-1.12h-14.9C357.66,2109.06,358.121,2109.91,358.609,2110.18Zm15,2.06c-0.554.3-6.357,3.97-6.7,4.15a2.148,2.148,0,0,1-1.81,0c-0.339-.18-6.142-3.85-6.7-4.15-0.39-.21-0.386.03-0.386,0.22v7.56a1.185,1.185,0,0,0,.99.99H373a1.186,1.186,0,0,0,.991-0.99v-7.56C373.991,2112.27,373.994,2112.03,373.6,2112.24Z" transform="translate(-219 -2098)"/>
  </g>
</svg>
